<?xml version="1.0" encoding="utf-8" ?><svg xmlns="http://www.w3.org/2000/svg" xmlns:xlink="http://www.w3.org/1999/xlink" width="1024" height="1024" viewBox="0 0 1024 1024"><path fill="white" d="M0 0L1024 0L1024 1024L0 1024L0 0Z"/><path fill="#333343" d="M494.977 71.6984C514.441 69.4846 534.122 73.17 551.466 82.2766C554.424 81.7351 557.396 81.2741 560.379 80.894C593.668 76.713 630.659 85.8886 657.325 106.525C677.857 106.754 693.596 108.889 713.11 116.379C731.472 123.427 748.556 133.538 763.802 146.071C768.575 149.996 773.994 157.303 778.126 160.373C782.497 163.62 791.528 167.303 796.768 170.757C820.856 186.635 831.786 199.217 843.369 224.693C865.527 237.647 880.233 250.819 889.876 275.241C892.307 281.399 893.72 287.709 895.896 293.977C922.009 313.713 935.268 330.821 935.751 364.707C942.385 368.663 951.771 378.568 956.267 384.788C973.544 408.694 977.929 433.086 973.99 461.485C980.732 471.459 986.548 483.662 988.931 495.522C993.648 518.997 991.081 557.147 977.862 577.185C979.188 582.985 980.454 588.798 981.662 594.623C988.204 627.256 982.876 665.202 954.238 685.938C946.343 691.655 939.255 693.64 929.848 695.414C926.293 710.958 919.652 724.763 906.008 733.822C916.866 759.736 904.135 789.032 885.137 807.553C855.886 836.07 819.118 864.147 781.109 879.639C742.331 895.444 692.715 893.431 661.355 863.249C663.753 867.695 665.818 872.312 667.534 877.062C670.827 886.035 688.906 940.678 687.352 945.947C686.94 947.347 685.9 948.614 684.515 949.125C683.053 949.664 681.407 949.628 680.022 948.885C675.644 946.537 673.394 933.582 671.868 928.569C657.93 882.793 636.68 815.227 601.215 782.439C591.973 773.894 581.654 768.168 570.636 762.296C578.602 746.866 578.141 729.585 570.201 713.951C569.193 711.966 567.432 708.728 565.273 708.056C563.375 708.361 561.78 709.71 560.15 710.819C561.21 712.173 562.255 713.538 563.287 714.913C576.716 732.968 572.196 761.682 553.855 774.639C551.238 776.488 546.512 780.298 543.352 779.781L542.819 778.963C543.192 776.526 553.428 770.162 556.133 767.102C569.946 751.476 571.465 727.909 555.687 713.015C540.903 720.279 524.252 728.843 508.973 734.529C503.116 736.485 497.101 738.551 491.071 739.879C481.51 741.984 476.851 748.705 468.214 753.5C469.454 782.057 489.459 809.033 516.421 818.853C533.261 824.985 550.674 829.763 566.03 839.53C596.154 858.689 618.647 890.32 634.836 921.65C637.86 927.515 645.721 942.375 644.786 948.185C637.505 958.603 633.6 943.78 630.712 938.622C628.83 935.261 627.202 931.483 625.41 928.032C617.625 912.882 608.56 898.425 598.314 884.818C579.92 860.866 559.929 845.347 531.008 835.929C509.214 828.833 485.003 817.875 473.136 797.222C467.186 786.866 461.854 773.425 460.155 761.503C428.24 780.073 394.933 789.178 358.099 780.529C336.563 775.646 316.722 765.1 300.626 749.982C294.833 744.579 288.281 736.842 282.134 732.355C267.504 721.678 256.08 717.079 246 700.872C230.396 675.78 239.291 633.725 245.965 606.318C233.377 611.2 217.492 615.382 203.953 615.974C181.252 617.186 159.001 609.315 142.113 594.097C132.76 593.774 125.791 593.244 116.826 590.193C98.624 584.013 83.4879 571.083 74.5394 554.07C72.7739 550.637 68.7396 539.976 66.6254 538.042C47.8459 520.866 34.3118 500.602 37.9109 473.959C38.7907 467.445 40.8314 461.885 43.0076 455.661C36.0346 430.889 36.1809 413.005 47.4468 389.419C48.527 387.158 47.8439 372.968 49.4195 367.717C52.0185 359.056 56.0464 354.495 59.7716 346.545C61.8165 342.181 61.0214 332.526 62.5348 327.553C65.7774 313.158 73.6591 296.742 84.3742 286.448C88.8833 282.116 94.5172 278.537 98.3561 273.494C104.186 265.836 104.764 256.601 111.041 248.946C116.855 241.854 123.84 236.55 129.928 229.739C140.314 218.121 146.346 206.171 158.225 195.539C166.282 188.328 173.987 182.74 183.421 177.337C186.449 175.604 195.208 172.252 197.421 170.614C204.463 165.609 210.383 159.233 217.828 154.708C223.975 150.971 230.738 147.65 237.564 145.348C244.398 143.116 248.806 140.685 254.117 135.727C274.515 116.504 302.545 113.765 326.793 102.787C340.749 96.4682 349.434 95.9376 363.857 93.3377C369.46 91.5947 375.388 88.5759 380.807 86.5482C407.09 76.7136 434.1 74.5976 461.465 80.4234C473.503 75.4925 481.745 73.0883 494.977 71.6984Z"/><path fill="white" d="M663.622 152.083C669.293 151.83 678.621 152.797 684.402 153.442C714.173 156.761 742.552 171.128 762.549 193.475C765.068 196.29 767.781 200.211 769.78 203.409C771.137 205.578 771.565 207.277 773.246 209.416L773.871 208.954C775.792 201.238 771.187 193.076 766.676 187.049C769.915 181.334 772.12 176.941 772.764 170.337C778.346 173.65 784.403 176.412 789.951 179.892C808.992 191.839 823.986 205.524 831.907 226.811C828.485 230.523 821.9 238.254 817.186 239.546C801.964 243.578 787.315 229.906 772.239 228.56C768.369 228.214 763.485 227.245 759.67 227.578C720.905 230.962 711.758 213.418 699.056 179.482C698.285 210.719 712.158 235.595 739.407 251.17C748.283 242.859 755.109 236.779 768.046 237.277C774.436 237.522 779.486 237.947 785.714 239.794C781.064 251.01 779.372 259.551 780.696 271.84C781.173 276.273 787.091 293.783 792.353 292.999C793.691 288.187 790.335 263.101 789.523 256.802C788.978 252.571 789.495 245.509 789.648 241.018C801.097 245.252 812.635 250.095 824.191 242.604C829.275 239.309 831.277 234.989 832.404 229.328C836.518 234.511 842.937 236.929 848.453 240.814C854.293 244.927 862.478 251.365 866.981 257.227C876.109 269.108 890.376 294.999 882.437 310.162C879.99 314.835 871.266 319.988 870.902 323.326L871.875 323.95C882.119 324.165 887.842 311.837 890.115 303.57C914.317 320.289 926.982 339.33 924.008 369.224C941.92 384.774 952.405 391.999 960.432 417.105C966.627 436.481 964.502 463.29 954.795 481.236C954.674 477.869 954.51 474.503 954.305 471.14C953.042 452.871 949.634 435.782 935.123 423.153C940.464 436.056 945.787 448.724 946.717 462.833C947.511 474.883 946.924 484.86 949.491 496.833C953.848 490.062 961.996 480.528 967.264 473.189C979.028 488.598 982.192 517.176 979.786 535.749C977.174 555.906 972.136 572.415 956.075 585.342C956.541 579.437 956.713 574.789 955.522 568.869C954.073 561.671 951.541 556.654 951.772 549.144C951.991 542.003 960.615 531.236 959.752 524.821L959.132 524.664C955.88 527.1 954.058 531.498 952.154 534.493C938.846 555.428 951.769 563.712 948.892 584.095C947.536 593.701 940.02 604.82 933.737 612.056C932.024 614.028 926.869 619.63 926.282 621.737L926.835 622.223C929.693 621.822 932.204 619.551 934.512 617.938C944.806 610.744 948.957 601.924 954.935 591.483C959.641 589.22 962.801 587.035 967.064 584.131C975.968 602.119 975.536 634.937 966.822 652.985C960.318 666.457 950.907 677.556 936.387 682.552C923.648 686.936 908.875 685.585 896.454 680.737C894.794 680.066 893.62 678.885 893.09 677.15C893.179 676.649 893.268 676.148 893.357 675.646C898.506 671.889 905.724 669.901 910.844 666.148C919.98 659.453 928.141 652.236 927.244 639.986L926.647 639.59C917.283 652.221 914.103 656.137 899.488 663.289C877.118 674.236 859.329 673.147 837.89 660.408C835.083 645.939 834.274 641.328 826.427 628.57C843.635 625.74 852.382 623.325 868.43 616.058C874.759 620.041 882.053 624.904 889.315 627.008C892.098 627.815 899.717 629.486 902.342 628.727L902.528 628.011C901.359 626.78 895.063 624.344 892.87 623.22C886.475 619.942 880.514 616.418 874.507 612.48C876.018 611.65 877.509 610.782 878.978 609.877C897.288 598.472 920.897 578.077 924.758 556.394C928.881 533.243 928.9 513.538 916.237 493.6C919.206 488.338 923.942 476.912 920.9 471.212C919.362 471.348 918.674 474.085 918.369 475.482C913.053 499.837 890.41 508.571 867.607 502.539C871.551 495.531 877.523 490.008 882.689 483.842C886.107 479.763 888.747 476.059 891.711 471.683C909.509 445.399 914.479 423.173 908.124 391.951C912.603 392.447 930.007 392.987 931.731 388.042L930.982 387.101C926.226 385.073 911.885 385.54 906.347 385.883C903.388 377.107 901.4 370.382 894.259 364.223C896.183 370.57 898.353 377.323 899.488 383.843C904.272 411.313 897.537 440.261 881.666 463.099C874.513 472.704 866.911 481.932 859.629 491.457C850.997 502.749 844.357 515.522 836.235 527.005C814.445 557.25 781.486 577.549 744.671 583.397C764.038 566.086 783.967 542.107 777.496 514.354C776.422 521.911 775.53 528.518 772.345 535.617C751.755 581.447 701.018 600.407 654.846 608.7C634.013 612.442 612.172 615.062 592.02 621.554C576.146 626.668 559.116 637.509 552.822 653.613C551.722 656.427 548.631 664.675 549.782 667.342C552.262 666.926 559.335 655.387 562.666 651.919C565.919 648.545 569.593 645.604 573.598 643.17C597.274 628.73 644.602 623.008 673.198 617.811C695.83 633.964 726.685 638.253 753.897 636.814C776.827 635.6 799.878 633.045 822.472 628.987C830.558 641.686 829.397 647.167 831.637 661.744C822.279 673.61 796.91 673.07 783.399 671.389C772.331 670.887 756.53 664.974 747.13 659.093C747.718 656.864 750.415 647.98 749.535 646.552C747.542 647.198 745.78 650.377 744.82 652.187C736.779 667.35 716.061 675.9 700.236 681.021C683.432 686.458 656.683 685.505 638.904 680.962C607.961 690.784 600.41 694.466 567.074 691.337C549.477 702.996 530.879 713.069 511.499 721.435C504.742 724.405 498.473 727.393 491.218 728.976C497.389 719.018 502.327 710.401 504.155 698.573C502.577 700.577 500.742 703.318 499.527 705.51C465.583 766.913 386.685 791.58 325.323 754.786C314.052 748.514 305.747 739.01 296.82 729.914C285.932 718.82 270.606 713.163 260.204 701.496C256.392 697.221 252.581 690.349 251.5 684.259C245.29 649.277 255.667 606.918 272.058 575.66C284.085 555.445 319.214 524.588 339.363 511.615C346.721 506.878 358.54 503.262 367.002 501.101C365.372 505.614 364.314 510.314 363.853 515.091C362.425 529.445 365.279 540.692 374.297 551.782C347.719 566.856 335.661 592.681 329.038 621.623C326.925 630.856 328.335 640.485 321.797 647.205C308.886 660.477 295.813 662.41 278.414 657.201C275.428 656.307 269.727 653.23 267.076 653.322C266.19 654.517 266.491 653.843 266.518 655.517C267.15 656.722 267.598 657.405 268.676 658.277C280.951 668.205 297.083 669.658 311.033 662.267C317.683 658.744 321.062 655.376 325.967 649.626C325.659 676.68 336.911 705.037 355.497 724.503C344.866 730.552 338.384 727.842 327.927 724.887L327.613 725.328C328.563 730.436 336.457 731.55 340.837 732.135C347.782 733.061 352.74 731.151 357.917 726.991C359.811 728.311 361.746 729.572 363.72 730.771C396.767 750.494 432.545 741.587 453.481 709.525C466.938 688.914 488.284 679.24 512.621 683.06C515.681 683.54 521.704 684.617 524.602 683.889L524.97 683.183C522.825 680.035 514.163 677.519 510.411 676.637C500.474 674.298 493.178 674.959 483.65 677.34C453.286 684.928 448.859 711.678 425.222 726.294C412.095 734.413 396.835 735.376 382.034 731.602C367.294 727.843 355.897 718.411 348.509 705.065C334.586 679.916 335.4 647.671 343.03 620.614C347.275 605.561 350.652 598.316 359.366 585.826C380.244 555.897 412.651 566.994 438.301 545.036C454.752 530.952 456.431 502.623 478.698 496.002C507.57 487.418 527.36 510.946 557.852 491.341C569.769 483.678 574.994 479.162 585.692 469.174C595.858 459.276 609.657 448.418 618.694 437.755C649.228 401.725 679.076 369.563 726.468 357.04C743.906 352.433 764.311 347.476 780.381 338.832C790.303 333.495 796.358 326.213 799.304 315.099C796.625 317.546 794.263 321.431 790.228 324.983C778.004 335.744 761.771 338.904 746.303 342.398C770.102 307.854 763.048 293.402 761.31 254.473C757.814 263.012 756.809 274.961 756.921 284.126C757.196 306.638 753.862 327.093 737.373 343.97C717.117 347.887 688.832 356.072 671.303 366.855C675.269 356.059 677.877 344.311 678.229 332.584C678.877 310.973 678.119 287.807 688.794 268.187C689.757 266.416 691.615 264.958 691.356 262.91L690.39 262.356C688.654 262.456 687.424 263.233 686.178 264.434C672.289 277.822 669.629 297.173 668.407 314.917C657.212 295.322 644.911 283.79 645.652 258.72C645.699 257.128 645.521 253.646 644.998 252.251L644.256 252.4C642.397 255.861 642.304 262.283 642.462 266.211C642.979 279.131 647.456 292.396 654.17 303.407C659.428 312.032 666.965 321.028 668.239 331.358C669.668 342.954 666.798 362.382 660.945 372.541C658.803 376.259 647.814 384.096 643.673 388.524C633.31 399.607 625.173 409.632 616.035 421.664C607.302 405.589 599.606 399.009 581.414 394.635C576.845 393.536 569.557 391.892 565.424 390.27L564.716 389.988C569.056 386.635 575.41 381.811 578.821 377.575C603.688 346.682 612.859 304.159 615.777 265.499C617.724 239.715 616.884 214.587 628.131 191.213C634.569 177.833 649.356 156.983 663.622 152.083Z"/><path fill="#333343" d="M849.011 398.061C850.392 408.789 847.494 423.929 844.467 434.412C839.614 451.111 830.216 466.132 817.323 477.801C771.168 519.992 755.739 483.695 720.231 503.264C724.357 511.047 725.331 519.249 721.802 527.517C720.242 531.172 716.162 537.402 712.467 538.909C710.335 537.491 713.203 533.917 714.104 530.489C716.464 521.517 716.957 516.13 714.476 507.269C708.096 513.533 703.748 521.31 696.132 528.307C670.148 552.18 636.792 564.322 601.688 563.31C596.601 567.046 591.865 571.535 586.465 575.269C571.748 585.441 553.924 593.935 535.887 595.372C530.608 595.792 524.91 595.23 519.658 594.785C512.241 599.05 502.833 607.805 496.248 613.514C488.428 620.294 482.384 624.996 473.806 630.705C488.33 633.233 506.048 637.198 519.461 643.474C505.818 644.137 482.158 637.354 467.458 637.515C460.359 637.593 456.031 639.671 449.215 641.281C440.61 643.314 433.04 643.697 424.29 643.103C423.63 645.419 423.1 648.716 422.634 651.15C416.215 667.957 406.967 681.286 388.648 686.18C387.268 686.549 385.854 686.689 384.661 685.902C385.461 684.204 394.043 677.702 396.142 674.929C403.52 665.182 414.454 653.175 420.123 642.547C399.934 638.554 379.05 630.861 372.97 608.804C377.484 611.989 381.509 616.592 386.049 619.956C411.748 638.992 453.394 638.728 474.905 613.22C480.903 606.155 486.649 597.696 490.146 589.072C497.471 571.007 489.334 551.016 488.173 532.503C488.713 533.256 489.236 534.021 489.741 534.798C499.687 550.165 501.229 571.625 497.499 589.326C512.223 576.564 520.874 580.929 538.259 579.349C584.554 575.141 621.161 529.543 621.507 484.661C621.525 480.683 621.311 476.707 620.867 472.755C620.467 469.367 619.034 462.784 619.593 459.738L620.226 459.518C623.716 461.869 626.772 470.737 627.333 474.938C630.887 501.52 622.644 525.212 607.618 546.909C666.795 541.569 705.534 519.708 716.593 458.002C720.73 434.917 723.69 408.875 749.423 399.984C750.199 400.149 749.861 399.946 750.368 400.696C749.57 402.119 744.399 405.78 742.709 407.35C726.153 422.724 727.401 443.758 724.43 464.413C723.423 471.8 721.591 479.052 718.969 486.031C734.715 479.629 748.279 479.972 764.31 484.944C789.799 492.849 813.075 477.568 827.072 456.96C839.261 439.015 843.59 418.612 849.011 398.061Z"/><path fill="#333343" d="M831.679 257.403C843.232 262.565 858.593 305.524 859.712 318.465C860.261 324.827 860.471 332.731 860.294 339.238C873.245 338.339 876.992 332.596 888.124 329.211C881.201 339.975 870.998 346.364 858.07 346.469C853.421 363.488 839.335 373.859 826.091 384.299C816.222 392.078 801.427 399.258 788.639 395.411C780.091 407.462 789.687 417.538 799.471 424.45C801.146 425.404 804.866 427.197 805.559 428.648C802.156 433.507 767.68 417.286 782.566 393.839C777.263 392.176 760.353 386.381 758.26 380.777C760.556 378.799 774.364 386.007 778.826 386.677C802.252 390.191 833.686 373.391 842.584 351.265C853.059 325.221 846.441 291.694 835.384 266.67C834.263 264.15 831.814 259.974 831.679 257.403Z"/><path fill="#333343" d="M664.03 206.599C705.557 204.743 729.386 253.465 724.056 289.807C723.577 293.072 721.91 296.596 719.103 298.447C717.789 294.485 718.208 286.672 717.608 282.148C714.038 255.246 698.756 223.614 672.289 212.808C667.346 210.79 662.526 210.879 657.98 209.141L658.023 208.472C660.17 207.302 661.659 207.121 664.03 206.599Z"/><path fill="#333343" d="M335.754 697.872C338.817 705.639 327.439 711.119 321.366 712.614C313.524 714.545 306.947 712.428 300.275 708.311C299.025 707.273 297.451 705.916 297.282 704.286L297.941 703.674C314.645 708.156 321.294 708.328 335.754 697.872Z"/><path fill="white" d="M497.25 83.2955C511.934 82.0139 530.283 82.9157 542.883 92.0793C548.024 94.8925 557.715 111.451 562.02 112.362C577.436 115.623 597.635 115.853 613.065 119.968C629.966 124.476 641.144 129.794 650.159 144.566C623.897 153.858 612.413 170.885 603.629 196.844C592.511 229.699 598.33 263.176 596.644 296.92C595.864 312.541 592.496 328.774 587.077 343.36C571.81 387.69 534.879 392.644 497.635 409.184C499.648 399.508 500.989 389.38 503.549 379.878C508.502 361.491 520.95 345.353 527.57 327.931C535.904 305.998 535.896 277.285 525.803 255.91C517.977 239.335 505.6 229.72 488.739 223.588L489.2 222.891C506.093 197.649 532.414 176.156 562.744 170.948C564.382 170.666 563.998 170.907 565.124 169.979L564.744 169.474C561.851 168.655 560.399 168.758 557.361 169.034C534.352 171.125 513.041 185.39 497.635 201.89C491.52 208.44 486.567 215.713 480.883 222.544C456.772 222.249 427.612 229.228 408.599 244.383C400.735 250.651 391.307 260.711 387.144 269.935L387.993 269.388C392.478 266.535 398.466 260.861 402.809 257.31C418.258 244.678 431.6 237.491 451.266 233.121C467.437 229.527 481.206 227.936 495.856 237.146C510.964 246.645 523.005 267.277 526.776 284.133C531.866 306.884 522.683 331.457 511.211 350.786C507.837 356.471 505.265 361.907 501.542 367.713C498.314 353.867 491.873 343.117 480.173 334.972C487.858 348.284 501.577 367.429 497.449 384.021C495.099 393.467 492.27 401.936 491.334 411.851C485.402 414.169 470.535 421.633 465.316 424.698C462.039 426.62 458.85 428.688 455.757 430.895C452.238 433.412 445.033 440.271 441.102 440.257L440.581 439.627C440.794 436.347 444.536 428.943 445.333 425.486C446.811 417.858 449.463 409.407 450.308 401.739C453.786 370.147 449.556 340.162 460.977 309.436C464.574 299.757 467.863 292.135 472.127 282.665C455.949 298.123 447.909 322.282 444.266 343.838L443.835 342.838C437.575 328.062 425.503 314.456 410.21 308.922C412.572 311.249 415.612 313.473 418.022 315.954C423.23 321.311 427.952 329.936 430.845 336.784C442.063 363.34 444.682 393.763 437.763 421.774C435.884 429.379 433.44 435.391 430.622 442.581C404.69 449.93 393.55 458.22 374.814 476.543C375.32 455.775 372.915 443.202 366.809 423.702C371.583 410.168 382.147 396.439 392.459 386.626C397.703 381.635 404.36 375.959 408.995 370.566L409.574 369.886C389.214 379.885 374.689 391.972 363.659 411.814C362.457 400.41 361.729 392.031 362.501 380.357C363.03 372.363 364.457 363.151 364.521 355.349C352.386 377.729 354.528 411.816 360.399 435.885C365.242 455.741 366.945 469.381 363.796 489.746C337.199 498.421 328.856 503.914 308.146 521.52C281.727 543.978 264.884 558.318 251.588 591.62C235.636 598.148 219.983 603.823 202.248 604.564C184.974 605.286 165.708 599.517 152.61 587.825C149.098 584.522 147 579.709 144.786 575.556C133.057 553.556 128.991 526.294 134.79 501.948C136.033 496.727 138.374 491.528 138.665 486.167C138.767 484.099 135.963 482.273 134.13 483.565C131.986 485.045 130.885 487.723 129.869 490.031C114.985 523.824 125.943 552.456 142.225 582.97C115.367 581.699 97.3631 572.077 83.9035 547.701C81.9339 544.134 78.7206 533.269 76.8416 531.266C74.7391 529.024 68.0153 523.914 64.6831 520.433C50.112 505.209 43.1918 481.588 52.4419 461.846C55.2499 455.854 64.66 447.563 64.7081 443.5C60.9868 440.566 55.5287 445.149 52.9034 447.577C46.9671 431.479 48.8346 418.95 53.6125 403.313C54.0202 404.282 54.4513 405.24 54.9053 406.188C60.1338 416.804 69.3603 424.912 80.5604 428.734C99.1269 435.007 120.311 429.899 139.251 427.606C148.398 426.335 157.882 425.853 166.827 423.529C172.277 422.153 178.312 417.201 181.149 412.25C186.449 402.997 189.564 394.673 197.073 386.682C205.699 377.502 214.921 368.018 227.53 364.541C230.293 363.779 233.431 363.652 236.012 362.463C239.328 360.73 236.417 355.067 237.037 352.447C242.629 333.696 254.734 317.625 266.282 302.14C272.232 294.161 278.552 284.59 285.726 277.867C306.12 258.757 329.328 256.951 337.391 226.99C331.891 231.39 327.523 238.502 321.499 242.971C312.655 249.53 302.697 254.944 293.366 260.956C273.977 273.449 269.077 287.758 256.727 305.047C251.164 302.474 243.074 295.494 239.705 290.367C232.119 278.826 231.771 271.965 233.916 259.084C233.461 259.699 233.019 260.323 232.59 260.957C220.236 279.304 230.816 302.773 247.83 314.093C237.751 326.701 233.724 340.565 230.491 355.972C226.804 356.423 225.42 356.68 221.859 357.705C217.442 359.399 213.365 361.528 209.139 363.64C205.02 362.125 202.52 360.647 198.686 358.404C198.126 337.02 193.057 321.414 175.975 307.761C182.769 319.777 193.33 335.807 191.149 350.786C188.305 370.313 158.26 360.44 153.303 363.72L153.717 364.565C158.785 368.111 162.339 369.095 168.385 369.77C178.942 370.949 185.184 369.847 192.387 361.715C195.964 365.545 197.592 366.288 202.096 368.857C197.063 375.143 191.539 379.926 186.818 386.793C183.966 390.902 181.251 395.105 178.677 399.394C168.68 416.288 168.172 416.678 147.86 418.452C141.537 419.005 134.586 419.58 128.213 420.096C121.874 412.856 117.965 406.801 115.659 397.32C109.449 371.781 114.892 346.254 132.74 326.685C140.427 318.257 145.853 316.026 151.616 305.143C159.049 291.106 159.978 277.065 166.873 262.808C169.67 257.025 172.416 251.667 176.427 246.583C179.012 243.307 182.835 239.504 184.917 236.088L184.294 235.154C179.816 234.118 170.397 243.344 167.537 246.207C166.136 237.452 167.069 228.478 165.161 218.007C163.037 223.213 161.748 230.898 160.828 236.735C157.243 259.473 145.205 285.847 117.882 282.675C115.579 282.407 112.059 280.357 110.69 278.385C109.429 274.358 117.422 259.132 120.226 255.479C126.022 247.553 135.522 241.536 141.544 234.051C151.674 221.459 158.758 207.651 172.396 198.012C177.461 194.433 182.175 191.587 187.606 188.405C187.301 189.493 187.024 190.59 186.775 191.693C185.302 198.332 186.964 215.197 194.742 216.731C196.725 215.204 194.616 205.654 195.056 202.635C198.647 177.953 221.753 163.156 243.533 155.095C251.057 164.346 254.494 157.539 256.364 149.313C269.683 134.65 289.616 127.25 308.294 121.51C320.913 117.632 326.62 114.775 330.684 131.857C332.925 141.276 325.738 150.317 318.863 156.31C311.249 162.949 302.405 182.505 309.5 191.332L310.464 191.346C314.046 187.35 314.248 177.867 317.773 172.681C320.652 168.445 321.662 167.44 325.522 163.892C334.294 155.831 339.905 149.048 340.979 136.779C341.961 125.572 339.131 121.391 332.36 113.259C365.181 93.8291 386.617 128.583 395.883 124.46C399.54 117.975 377.69 105.646 372.899 102.681C378.318 100.368 383.422 97.8777 388.949 95.7942C409.27 88.1336 428.769 86.8064 450.133 88.9746C438.445 96.9993 420.741 105.002 421.93 121.426C422.109 123.907 422.631 130.64 421.664 132.492C419.461 136.708 410.14 136.861 405.707 139.079C398.581 142.644 397.143 152.291 390.924 157.566C385.945 161.789 380.011 164.751 374.168 167.369C356.302 175.373 343.518 184.609 336.316 203.504C335.558 205.494 333.418 212.379 334.253 214.166C336.626 213.422 342.293 202.61 344.198 199.976C348.582 193.914 352.325 189.618 357.908 184.635C369.178 174.575 384.661 172.583 396.111 162.767C400.139 159.317 402.682 155.7 405.747 151.451C407.44 162.303 408.168 169.967 406.874 180.995C393.159 187.694 380.683 194.487 369.25 204.834C345.964 225.908 328.171 252.693 326 284.656C324.25 284.749 322.502 284.885 320.759 285.062C303.561 286.877 287.152 298.263 276.541 311.492C262.142 329.445 257.03 350.62 259.459 373.304C248.075 373.569 238.21 377.186 227.939 381.979C201.146 394.484 181.43 423.373 180.454 453.137C168.743 432.047 158.076 431.848 135.56 433.49C89.0987 436.88 76.6792 509.358 100.434 541.335C94.3281 514.197 90.6425 473.348 113.759 452.428C127.508 439.986 147.415 444.142 161.561 453.773C182.022 467.704 180.379 482.495 181.863 504.892C182.041 507.33 182.06 510.198 183.702 512.18L184.119 511.984C186.129 506.014 186.581 500.124 187.378 493.874C194.968 515.82 209.11 532.851 206.617 556.793C205.779 566.877 199.916 575.301 190.028 578.304C187.228 579.154 180.014 578.742 180.199 582.487C182.592 585.099 190.516 586.974 193.864 586.277C214.72 581.937 216.468 555.76 213.713 539.292C213.981 538.572 214.262 537.857 214.554 537.147C224.911 512.06 250.825 517.78 253.814 510.39C252.175 504.401 238.847 508.834 234.55 510.089C222.596 513.582 217.297 518.955 211.605 529.758C204.44 513.752 191.815 493.244 188.806 476.792C178.708 421.573 210.149 389.61 260.765 379.134C265.093 394.572 274.131 417.073 286.58 427.821C288.129 429.159 289.3 430.042 291.259 429.845L291.65 429.109C291.874 425.265 288.067 422.032 286.464 418.711C274.601 394.132 262.21 370.105 270.515 342.25C281.818 304.008 329.722 273.181 359.799 312.504C361.816 315.14 370.214 327.669 373.526 325.157C374.446 322.388 373.728 320.202 372.367 317.669C362.86 299.976 351.619 291.387 333.333 285.045C333.383 283.614 333.538 282.188 333.797 280.78C343.049 227.886 400.965 173.458 457.071 183.473C463.838 184.681 470.254 187.633 476.389 188.594C461.679 170.127 432.695 173.912 412.522 179.173C413.246 166.136 412.41 159.907 410.846 147.012C415.087 145.472 420.023 145.078 424.226 142.722C437.026 135.549 425.77 121.393 434.372 112.357C444.7 101.507 465.2 90.9973 479.233 86.097C483.576 84.5804 493.088 83.6404 497.25 83.2955Z"/><path fill="#333343" d="M283.209 150.263C283.852 150.854 284.436 151.102 284.313 152.275C283.188 163.083 283.595 176.036 281.764 186.479C281.106 190.234 276.992 195.571 275 198.049C290.872 202.396 303.833 211.982 308.043 228.456C304.775 226.542 299.453 222.206 296.232 219.769C284.821 211.135 273.966 206.601 259.519 208.3C247.792 209.678 235.389 218.206 228.433 227.492C214.381 246.253 206.981 272.833 210.105 296.116C210.645 299.689 213.003 306.4 212.284 309.361L211.56 309.574C208.16 307.612 204.798 298.05 203.932 294.198C198.326 269.249 208.578 241.773 221.112 220.524C216.205 222.145 199.956 228.189 196.091 227.348L196.068 226.677C201.59 221.465 216.082 218.146 223.457 217.3C232.736 205.465 240.992 200.351 255.684 197.208C262.557 189.362 268.633 183.054 273.224 173.539C276.148 167.479 279.591 154.934 283.209 150.263Z"/><path fill="#333343" d="M485.266 91.1351C492.487 92.8863 501.275 108.621 512.669 112.477C521.85 115.583 525.383 116.183 535.527 116.889C555.104 118.251 573.271 121.202 589.55 133.088C590.911 134.082 592.495 135.233 592.74 136.954C591.351 138.484 588.589 137.483 586.956 136.71C571.842 129.559 555.112 124.585 537.876 125.987C515.042 126.504 499.689 138.588 482.989 152.365C478.606 155.981 461.793 165.224 457.565 158.725C458.111 157.556 460.763 156.487 462.022 155.813C479.028 146.721 493.533 126.668 488.788 106.592C487.693 101.956 485.311 95.7461 485.266 91.1351Z"/><path fill="#333343" d="M228.756 439.136C231.989 440.695 233.755 451.807 245.744 458.303C251.083 461.237 256.7 463.631 262.514 465.451C282.79 471.939 293.754 471.323 307.84 488.943C310.967 482.494 312.485 478.828 312.426 471.629C312.417 470.506 313.166 470.179 314.004 469.746L314.777 470.443C317.136 476.819 315.542 485.25 313.69 491.588C311.213 500.066 306.182 506.538 300.034 512.671C295.323 516.566 286.623 523.375 280.089 520.91C278.696 520.385 278.641 519.969 278.306 518.797C279.824 515.318 281.951 517.059 284.541 515.909C293.059 512.126 299.25 502.973 303.581 495.125C281.437 478.794 252.902 480.888 234.82 457.074C230.564 451.47 227.87 446.414 228.756 439.136Z"/><path fill="#333343" d="M319.645 350.756C320.521 351.726 320.623 351.689 320.496 353.244C319.48 365.717 318.763 377.751 320.385 390.265C323.761 416.317 342.609 436.189 354.387 458.536C355.408 460.475 355.819 462.73 355.005 464.794C353.69 466.274 353.6 466.152 351.731 466.622C336.711 459.076 319.811 427.137 316.632 410.989C313.378 394.453 312.426 365.889 319.645 350.756Z"/><path fill="white" d="M555.99 395.929C558.367 396.062 563.129 399.402 565.414 399.67C589.28 402.465 599.282 405.238 610.698 427.634C598.672 441.979 570.075 467.973 554.338 478.623C540.264 488.148 527.8 485.824 513.044 481.662C487.785 474.536 460.143 482.11 446.105 505.484C437.738 519.414 435.66 529.192 420.903 538.108C408.089 544.625 396.614 546.462 382.837 549.175C370.049 536.681 367.986 523.468 372.651 506.36C379.866 479.893 403.207 463.06 428.258 455.051C435.683 452.676 443.549 451.793 450.794 449.081C453.696 447.958 461.108 440.708 464.363 438.417C470.838 433.859 476.636 431.199 483.506 427.61C506.144 415.784 534.014 408.535 555.99 395.929Z"/><path fill="white" d="M913.918 497.345C915.357 498.487 916.771 502.69 917.224 504.556C922.212 525.101 920.676 550.198 909.988 568.647C880.09 620.087 818.013 626.088 764.614 630.135C734.775 632.396 713.563 629.29 687.24 614.579C698.119 611.518 708.761 607.668 719.081 603.06C722.332 601.603 729.397 597.361 732.305 596.682C747.388 593.161 762.792 590.132 777.854 586.445C786.658 596.771 794.215 604.553 808.979 604.098C811.851 604.01 818.205 603.414 820.147 601.386C819.152 600.42 806.16 598.478 802.938 597.023C794.621 593.269 790.631 590.527 784.359 584.047C798.451 576.527 806.807 570.138 818.71 559.53C828.323 550.964 837.063 543.811 846.128 534.462C846.318 535.079 846.512 535.696 846.709 536.311C853.719 558.114 873.575 572.967 897.978 566.468C899.956 565.942 902.584 564.853 903.49 562.995C901.502 560.238 892.21 563.193 887.245 562.088C880.675 560.624 875.852 559.518 869.98 555.997C862.502 551.482 857.164 544.139 855.175 535.634C852.582 524.573 859.39 514.788 865.013 505.774C883.105 513.223 899.999 511.616 913.918 497.345Z"/><path fill="white" d="M101.51 286.437C102.191 286.922 102.912 288.273 103.783 288.885C118.52 299.248 132.738 293.809 146.568 286.145C145.457 291.095 140.455 304.18 136.114 306.755C118.126 317.421 107.142 327.609 104.239 349.369C101.716 343.102 92.4396 328.396 85.8606 326.97L85.2568 327.497C86.8549 332.522 91.4272 340.866 93.7048 346.195C99.2149 359.088 99.8198 370.041 101.12 383.617C103.196 397.94 106.238 409.563 113.378 422.12C96.0395 423.137 78.8087 420.976 67.3913 406.607C58.6164 395.563 56.4081 378.929 61.7327 365.888C63.2778 361.311 69.8209 353.25 70.622 349.006C74.1078 330.544 74.8461 314.539 87.7849 299.297C92.3443 293.926 95.7428 290.967 101.51 286.437Z"/><path fill="white" d="M569.865 91.7117C592.88 89.9913 620.417 96.7244 640.299 108.275C646.501 111.878 652.102 117.352 658.499 121.103C659.388 123.365 661.046 129.057 663.418 129.494C664.928 126.753 663.706 120.873 663.265 117.746C698.934 118.97 744.703 137.859 767.715 165.912C767.514 172.416 766.887 174.796 764.564 180.827L763.913 182.265L763.166 182.535C761.121 181.474 757.458 177.602 755.37 175.7C730.943 153.456 693.738 144.34 660.933 146.966C642.463 109.653 599.475 109.741 563.342 108.073C560.978 103.27 558.501 98.525 555.912 93.8404C560.654 92.5449 564.988 92.1848 569.865 91.7117Z"/><path fill="white" d="M740.1 756.216C741.113 756.746 748.296 767.844 749.881 769.724C776.363 801.137 818.095 817.071 858.847 816.023C852.937 821.722 842.114 829.8 835.422 835.08C833.225 836.84 830.842 838.511 828.559 840.17C812.262 838.013 794.128 832.315 779.549 825.116C747.615 809.346 733.289 792.721 721.837 759.756C727.27 758.407 734.634 757.024 740.1 756.216Z"/><path fill="white" d="M704.987 762.716L705.746 762.699C707.376 764.116 708.615 770.703 709.447 772.979C712.846 782.278 717.222 791.473 722.655 799.747C743.206 831.039 775.982 843.946 811.033 851.318C806.215 854.823 800.73 857.535 795.506 860.377C791.696 862.462 787.747 864.051 783.675 865.542C761.807 859.371 738.911 849.841 721.607 834.848C700.274 816.364 695.841 791.055 694.04 764.241C697.669 763.636 701.34 763.208 704.987 762.716Z"/><path fill="white" d="M672.303 768.203C673.135 768.042 673.513 768.12 674.327 768.278C676.664 771.642 677.328 784.243 678.386 788.969C679.558 794.206 681.24 799.503 683.043 804.552C696.576 842.444 721.78 859.269 756.382 875.69C753.02 876.47 749.524 876.891 746.114 877.437C732.401 879.142 716.87 878.112 703.442 874.875C692.132 872.149 683.728 859.11 678.037 849.714C663.099 825.052 659.148 797.079 666.062 769.176C668.112 768.718 670.224 768.491 672.303 768.203Z"/><path fill="white" d="M843.855 698.718C869.798 697.389 892.13 702.651 917.454 703.161L914.542 709.158C893.845 708.783 876.153 704.46 854.989 704.967C821.938 705.757 797.018 714.139 765.843 723.218C740.494 730.6 717.37 737.501 692.378 746.264C683.136 749.499 673.642 753.431 664.598 756.806C659.633 758.659 631.52 762.33 628.023 759.54C629.925 755.651 657.778 745.436 662.767 743.517C681.227 736.417 700.213 730.189 719.152 724.488C739.868 718.252 761.187 710.863 782.361 706.44C802.623 702.243 823.185 699.661 843.855 698.718Z"/><path fill="white" d="M744.274 670.365C745.508 670.766 748.413 672.327 749.732 673.05C760.846 679.145 773.015 679.832 785.253 682.512C756.595 687.66 731.701 694.794 704.18 703.672C680.426 711.335 655.099 719.375 632.325 729.583L603.998 741.474C601.389 731.047 602.636 722.032 606.709 712.137C620.085 710.307 633.398 706.748 646.377 703.182C650.452 702.063 658.034 701.355 661.184 699.515C666.425 696.454 671.182 697.58 677.236 697.322C699.054 696.393 729.284 686.35 744.274 670.365Z"/><path fill="white" d="M758.326 754.144C766.841 753.528 779.208 759.483 787.927 762.527C821.426 774.223 861.824 781.415 896.393 770.721C893.838 777.342 892.026 780.546 887.942 786.292C884.916 790.335 880.705 794.524 877.11 798.112C851.568 801.764 830.026 801.334 805.584 790.697C795.805 786.44 761.761 763.458 758.326 754.144Z"/><path fill="white" d="M834.974 687.709C856.23 686.181 881.001 687.571 901.261 693.922C905.283 695.182 918.381 694.588 919.994 697.735C917.919 701.06 890.47 696.822 884.983 696.24C871.684 694.77 858.299 694.216 844.924 694.582C799.532 695.969 770.886 704.131 728.118 717.305C712.2 722.104 696.362 727.164 680.61 732.482C658.5 740.853 643.849 745.498 622.557 757.008C620.084 755.45 617.622 753.876 615.17 752.284C619.697 750.836 627.094 747.324 631.643 745.349C640.821 741.304 650.108 737.511 659.494 733.976C684.025 724.848 708.898 716.668 734.058 709.453C769.571 698.98 798.013 691.099 834.974 687.709Z"/><path fill="white" d="M836.154 672.981C837.91 673.298 844.481 676.594 846.916 677.352C859.73 681.34 869.576 681.775 882.615 680.938C883.167 682.176 884.522 684.508 884.18 685.475C869.396 684.378 856.469 682.526 841.331 683.319C803.242 685.316 767.692 695.195 731.433 705.935C702.054 714.638 674.358 723.129 645.833 734.916C634.156 739.897 623.555 743.897 612.091 749.697C610.431 748.26 608.717 746.592 607.1 745.083C621.574 740.441 636.322 732.186 650.903 726.572C676.846 716.585 704.132 707.683 730.848 699.944C749.819 694.495 768.929 689.544 788.159 685.096C806.546 680.855 817.499 684.421 836.154 672.981Z"/><path fill="white" d="M852.617 720.211C870.262 718.66 886.521 722.124 903.96 723.304C894.868 728.662 872.815 729.095 861.541 730.595C836.331 733.896 811.17 737.548 786.062 741.552C769.941 743.062 754.929 745.605 739.06 747.548C761.492 740.327 783.503 731.403 806.629 726.119C821.401 722.744 837.5 720.981 852.617 720.211Z"/><path fill="white" d="M844.845 709.709C865.179 707.875 890.56 711.672 911.64 712.874C910.2 714.98 908.639 716.61 906.939 718.5C893.185 718.536 878.509 715.662 864.03 715.488C818.497 714.94 781.23 728.146 739.062 743.64C723.924 748.403 708.154 749.823 692.681 753.204C688.411 754.137 683.904 755.189 679.558 755.48C691.64 751.393 703.67 746.739 715.789 742.573C733.448 736.503 752.496 732.146 770.005 726.641C797.44 718.016 816.275 712.44 844.845 709.709Z"/><path fill="white" d="M687.177 765.674L689.256 765.508C689.469 765.751 689.743 765.951 689.893 766.237C690.085 766.603 691.314 783.068 691.845 786.14C693.598 796.278 696.469 806.577 701.16 815.772C715.681 844.238 749.553 859.06 778.492 868.469C775.818 869.861 772.905 870.891 770.107 872.018C768.055 872.763 765.93 873.327 763.835 873.939C746.99 867.758 729.132 857.91 715.594 846.217C692.911 826.626 681.525 796.431 679.397 767.096C681.944 766.471 684.592 766.12 687.177 765.674Z"/><path fill="white" d="M807.826 747.644C812.349 746.691 841.722 761.246 852.116 762.346C871.4 764.385 880.374 762.029 898.732 758.756C898.331 761.368 897.685 764.284 897.167 766.903C887.641 769.387 879.712 770.566 869.981 771.453C842.359 772.199 820.624 768.431 794.261 760.094C787.016 757.802 779.339 755.643 772.527 752.247C783.158 751.785 797.387 749.518 807.826 747.644Z"/><path fill="white" d="M660.925 770.23C661.205 770.228 661.46 770.403 661.719 770.511C660.488 778.416 658.953 785.841 658.64 793.882C657.534 822.361 669.259 849.211 688.37 869.897C685.941 868.677 683.617 867.171 681.278 865.784C677.712 863.647 674.275 861.045 671.07 858.402C639.11 832.045 650.022 806.842 646.506 771.76C651.319 771.394 656.127 770.766 660.925 770.23Z"/><path fill="white" d="M715.939 760.682L716.862 760.59C718.82 762.132 721.561 771.47 722.81 774.239C725.626 780.48 728.836 786.617 732.656 792.307C746.533 812.974 771.588 828.516 794.929 836.402C804.199 839.534 813.695 841.427 823.278 843.289C821.23 844.873 819.048 846.22 816.86 847.598C801.3 847.268 777.31 838.535 763.598 831.179C736.005 816.377 718.916 791.151 709.987 761.737C711.967 761.365 713.955 761.033 715.939 760.682Z"/><path fill="white" d="M751.975 755.218C752.318 755.29 752.66 755.363 753.003 755.435C758.066 761.128 763.608 767.097 769.31 771.952C803.369 800.951 828.61 807.227 872.171 803.293C869.989 805.816 867.357 808.28 864.955 810.632C860.81 813.648 833.68 810.117 828.008 809.08C794.287 802.912 764.673 784.49 745.3 756.137C747.35 755.734 749.869 755.484 751.975 755.218Z"/><path fill="white" d="M896.87 742.195C898.805 746.893 898.952 749.384 899.3 754.332C894.929 755.861 889.258 756.545 884.601 757.237C866.092 759.987 852.487 760.241 835.234 752.51C832.527 751.298 830.128 750.199 827.48 748.845C832.483 749.064 839.587 749.895 844.341 749.879C858.317 749.832 885.232 749.205 896.87 742.195Z"/><path fill="white" d="M889.192 732.2C892.718 731.718 895.684 733.032 894.11 736.996C887.002 743.003 847.395 742.584 837.157 742.236L830.073 742.206C847.87 737.242 870.637 734.444 889.192 732.2Z"/><path fill="white" d="M640.066 693.477C643.022 693.347 652.306 695.739 655.616 696.527C645.446 698.94 632.566 701.618 622.37 703.641C619.522 704.171 611.312 706.087 608.998 705.667L608.862 705.004C610.943 703.325 626.525 699.034 630.186 697.61C633.506 696.32 636.392 695.264 640.066 693.477Z"/><path fill="#333343" d="M481.479 755.234L482.302 756.07C486.367 803.414 533.135 805.811 565.832 825.71C589.596 840.172 608.58 859.722 624.229 882.602C627.889 887.952 631.654 893.311 634.937 898.903C639.742 907.088 654.6 936.04 653.131 943.887C652.816 943.807 651.274 943.308 651.241 943.241C649.462 939.598 647.141 932.018 645.627 928.725C634.694 904.947 620.1 879.461 602.137 860.402C589.827 847.413 576.061 835.772 560.373 827.035C549.612 821.042 537.402 816.189 526.063 811.47C513.032 806.048 500.239 800.729 491.715 788.861C485.027 779.549 479.753 766.885 481.479 755.234Z"/><path fill="#333343" d="M563.449 767.329C564.516 767.435 565.517 767.576 566.555 767.853C571.036 769.05 574.858 771.54 578.772 773.935C600.257 787.083 615.545 808.885 627.586 830.575C645.128 862.173 658.402 896.748 668.405 931.433C669.737 936.053 673.275 944.296 671.969 948.862C670.159 948.899 669.431 948.401 668.627 946.785C666.237 941.984 665.642 935.329 664.087 930.119C660.368 917.428 656.081 904.91 651.239 892.603C636.443 855.317 619.333 813.628 588.623 786.436C585.123 783.337 581.39 780.247 577.343 777.881C573.382 775.565 567.956 773.323 564.563 770.394C563.284 769.29 563.493 768.949 563.449 767.329Z"/></svg>