<?xml version="1.0" encoding="utf-8" ?><svg xmlns="http://www.w3.org/2000/svg" xmlns:xlink="http://www.w3.org/1999/xlink" width="1280" height="1024" viewBox="0 0 1280 1024"><path fill="#19182F" d="M0 0L1280 0L1280 1024L0 1024L0 0Z"/><path fill="#E7E8E2" d="M606.528 19.0672C628.385 18.006 655.496 19.721 677.602 21.7344C763.538 29.5617 863.562 54.4886 931.972 108.816C993.604 157.762 1003.34 230.477 1022 301.709C1028.89 328.019 1041.35 352.536 1042.45 380.991C1044.1 409.955 1018.02 427.569 1030.87 456.961C1048.56 497.418 1082.05 522.343 1112.01 552.681C1119.01 559.773 1121.38 570.981 1115.94 580.22C1103.06 602.118 1074.25 604.386 1057.51 621.394C1054.7 624.56 1051.9 630.824 1051.3 634.887C1046.63 666.379 1080.59 665.368 1050.57 698.599C1073.8 727.339 1033.35 738.712 1031.55 763.533C1030.3 780.838 1041.33 792.331 1039.9 813.131C1038.76 829.205 1031.24 844.156 1019.02 854.658C1011.43 861.195 1002.28 865.323 992.463 867.208C971.629 871.21 933.855 865.431 912.162 861.773C905.045 860.573 897.734 858.364 890.566 857.879C880.804 857.217 869.804 859.547 860.391 862.222C806.738 877.468 772.268 927.664 749.483 975.518C746.085 982.657 733.193 1015.13 729.623 1018.27C727.623 1018.9 728.554 1018.96 726.729 1018.26C721.963 1012.59 728.594 1001.88 731.044 995.935C755.316 937.018 796.96 866.275 864.698 852.471C860.846 851.253 855.712 850.369 851.63 849.371C843.064 847.25 834.513 845.067 825.979 842.823C781.651 831.096 731.208 815.864 693.816 788.405C680.751 778.811 671.239 768.706 661.088 756.215C658.461 771.413 655.453 785.191 653.29 800.74C648.898 834.17 647.132 867.893 648.006 901.599C648.478 927.905 650.746 954.149 654.796 980.146C655.63 985.298 661.023 1013.39 660.329 1016.4C658.525 1018.1 659.209 1017.96 657.168 1018.21C653.431 1016.36 652.614 1008.33 651.903 1004.47C638.981 934.254 640.593 862.577 650.172 792.068C652.091 777.945 655.217 764.149 657.255 750.101C640.251 722.975 638.375 696.175 615.428 671.395C605.943 671.478 597.727 670.936 590.038 664.691C580.56 656.995 573.543 647.123 565.728 637.861C552.466 622.144 538.1 606.629 527.743 588.76C527.691 589.712 527.624 590.663 527.541 591.612C521.777 657.084 471.175 704.699 404.163 698.481C385.84 696.781 377.266 687.718 365.993 673.987C338.026 673.964 321.05 666.478 304.784 642.476C298.858 633.732 294.492 624.457 287.519 616.379C279.379 606.946 269.44 599.282 262.12 589.193C251.449 574.162 250.092 550.249 253.211 532.517C212.431 520.889 194.444 470.009 203.099 431.635C204.951 423.424 208 416.679 211.693 409.24C198.082 367.225 216.343 341.293 241.038 310.375C237.464 272.435 259.161 244.206 290.314 225.576C292.596 197.378 306.089 186.955 330.156 176.429C344.146 146.769 357.795 124.828 394.65 124.47C413.177 100.054 433.181 83.7954 465.5 85.7151L466.55 85.0132C492.683 67.6758 522.081 69.5268 551.363 75.4167C575.537 63.7993 598.496 64.8301 623.573 72.2508C633.505 68.186 643.871 65.2731 654.466 63.5693C683.99 58.9866 714.283 65.2399 738.581 82.9932C742.511 83.003 746.441 83.1173 750.365 83.336C788.773 85.647 812.519 99.338 837.779 127.75C860.708 128.657 882.504 137.957 899.028 153.883C913.997 168.065 917.242 178.725 928.304 193.672C942.404 212.723 961.427 222.423 963.185 250.481C963.608 257.228 961.383 266.992 961.84 271.956C962.686 281.14 965.749 288.629 965.921 299.014C966.243 318.398 957.005 333.204 943.935 346.753C934.151 356.896 919.969 366.518 906.959 371.867C901.156 374.253 893.695 375.769 888.225 378.954C881.639 382.788 876.354 389.542 870.398 394.35C848.572 411.971 829.292 420.173 801.058 420.604C800.48 423.086 799.823 425.548 799.088 427.987C790.761 454.898 771.896 477.29 746.792 490.059C732.712 497.293 717.162 501.201 701.336 501.483C648.938 502.519 640.617 472.003 596.299 457.927C552.912 446.471 521.718 477.936 520.435 520.121C519.158 558.006 536.356 589.688 561.74 617.356C576.343 633.273 600.775 679.656 628.852 655.489C639.07 646.694 636.318 630.293 636.178 618.113C649.923 636.943 644.678 658.379 624.167 669.257C639.317 690.758 645.39 706.328 655.916 729.664C673.185 767.95 715.235 795.199 753.316 809.77C813.471 832.786 878.839 848.967 942.875 856.641C959.978 858.667 985.416 862.365 1001.12 855.515C1010.52 851.388 1018.37 844.397 1023.56 835.542C1042.4 802.89 1019.11 789.596 1023.29 758.878C1025.84 742.268 1041.07 733.916 1047.52 719.667C1052.38 708.949 1042.08 705.685 1039.05 697.834C1019.85 700.873 1006.09 710.263 987.764 715.545C979.522 717.943 970.716 717.703 962.38 719.7C958.633 720.598 957.773 722.301 955.571 725.236L954.948 725.085C954.623 724.293 954.403 723.824 954.248 722.994C950.837 704.693 964.923 713.306 974.245 711.39C1000.2 706.055 1019.37 693.022 1045.93 689.789C1058.28 672.78 1056.4 674.744 1045.55 658.749C1038.58 646.75 1041.82 625.337 1050.68 615.555C1066.82 597.732 1103.84 594.507 1110.75 569.113C1107.91 557.693 1098.41 550.6 1090.46 542.572C1079.79 531.446 1068.31 522.056 1058.51 509.927C1043.71 491.614 1025.96 466.568 1019.65 443.741C1016.01 430.574 1026.17 414.586 1030.23 402.809C1038.63 378.437 1028.48 352.57 1021.01 329.364C996.724 255.194 992.478 167.998 926.701 115.382C878.687 76.9741 818.389 55.7791 759.015 42.6628C720.956 34.2553 680.699 29.0084 641.782 27.5729C613.126 26.6956 584.444 27.7134 555.922 30.6197C443.697 41.584 326.885 92.5509 254.405 180.854C194.194 254.599 166.491 349.633 177.639 444.19C185.056 504.479 210.926 570.851 244.421 621.779C256.182 639.39 268.632 656.531 281.742 673.161C302.384 699.46 332.815 728.892 337.968 763.468C338.98 770.259 336.04 785.315 334.661 792.328C319.916 867.304 288.512 938.677 253.762 1006.36C250.849 1012.53 245.632 1021.34 238.117 1014.65C234.879 1011.42 236.601 1007.11 238.674 1003.12C275.375 932.449 314.391 846.521 323.499 767.2C320.735 737.244 285.093 701.027 268.256 679.779C209.173 605.259 166.068 514.007 163.118 417.573C156.922 214.984 310.875 70.8817 498.667 31.118C534.193 23.9117 570.288 19.8789 606.528 19.0672Z"/><path fill="#19182F" d="M389.568 134.598C406.748 132.339 435.508 140.679 450.356 149.895C428.547 149.936 414.423 152.933 397.321 167.698C418.789 157.422 444.481 150.142 467.77 158.632C501.305 170.856 496.026 219.742 507.612 244.19L508.027 245.057C504.972 244.379 501.711 243.529 498.502 243.209C480.576 241.419 456.849 252.01 454.502 271.827C454.274 273.75 453.837 275.213 455.012 276.634L454.711 277.554C455.819 273.441 456.95 268.087 459.41 264.825C478.317 239.756 521.095 245.801 524.053 280.161C524.759 284.76 524.603 290.271 525.63 294.751C533.516 329.145 563.713 334.751 593.725 330.664C614.708 327.806 639.592 331.947 656.417 343.908C665.017 350.021 673.005 357.406 680.641 364.707C686.847 370.577 692.126 375.223 697.361 382.055C706.948 394.569 702.585 409.941 694.379 421.598C684.103 436.196 668.586 439.991 652.179 442.763C673.461 445.296 699.588 432.932 706.627 412.05C710.189 401.48 710.024 396.184 706.995 385.722C729.672 391.798 751.006 382.691 765.159 364.427C754.984 371.788 748.109 376.375 735.644 379.692C704.694 388.58 687.455 358.877 666.374 342.22C646.551 326.556 626.645 322.406 601.715 324.051C584.097 324.907 566.998 331.085 550.853 320.897C530.024 307.754 535.478 289.274 531.034 270.378L530.816 269.473C544.925 275.237 561.705 275.111 576.8 275.904C602.062 277.233 636.349 278.337 660.018 286.872C680.16 295.097 698.307 309.303 708.107 329.021C711.473 335.793 712.521 342.428 715.33 348.658C714.057 323.021 701.12 307.029 683.41 290.355C730.244 304.792 778.532 327.538 790.288 380.406C795.616 403.826 791.399 428.404 778.57 448.707C765.581 469.04 743.094 484.436 719.539 489.484C710.645 491.305 701.546 491.918 692.489 491.306C663.317 489.546 651.45 476.619 628.413 461.742C614.841 453.698 602.852 449.189 588.536 443.087C569.653 434.59 551.454 426.576 530.406 425.573C491.05 423.697 454.018 439.716 418.679 455.06C409.736 458.943 400.24 462.643 390.332 462.764C380.715 462.882 375.552 457.276 369.254 450.975C384.003 476.87 406.887 466.823 429.909 458.932C440.362 455.348 450.802 451.324 461.214 447.635C500.92 433.565 533.838 430.27 573.413 446.608C544.24 450.286 529.371 461.62 517.661 488.373C493.095 456.079 439.753 472.879 409.059 486.5C442.954 479.546 488.132 462.622 514.704 496.045C509.436 512.137 509.695 524.751 512.375 541.027C489.834 508.291 464.06 507.313 428.168 500.471C378.311 490.967 325.336 480.026 277.606 503.969C267.68 508.948 262.305 513.235 256.474 522.584C221.64 511.853 206.934 468.849 213.039 435.64C214.759 426.284 218.774 418.13 222.79 409.621C212.229 370.169 221.024 348.196 248.133 319.176C252.591 323.15 256.784 326.926 264.346 330.073C277.708 335.636 317.419 324.103 322.012 343.675C323.972 352.026 309.09 363.821 303.297 370.148C313.353 363.55 332.302 351.57 325.529 337.805C316.282 319.012 285.142 327.228 269.094 323.487C249.625 318.948 248.001 302.324 252.516 286.036C258.13 265.785 275.244 245.206 293.414 235.269C306.007 249.743 311.072 267.379 311.681 286.101C316.577 262.36 311.506 251.288 300.654 230.166C300.861 206.469 310.409 194.718 331.491 186.838C339.856 183.711 343.362 171.328 347.645 163.845C357.424 146.76 370.12 137.572 389.568 134.598Z"/><path fill="#E7E8E2" d="M392.042 258.797L392.749 259.086C385.328 264.05 377.08 270.641 378.69 281.048C384.134 316.252 431.347 301.069 454.814 313.672C474.904 324.463 479.11 344.742 497.412 356.691C523.117 372.534 552.976 361.899 577.748 380.957C588.828 389.48 591.684 397.342 601.113 406.209C612.751 417.153 628.128 416.477 642.88 415.638C588.841 428.189 596.189 393.572 557.444 377.514C550.94 374.819 536.627 374.658 528.748 373.81C525.761 373.724 516.102 372.019 512.617 371.539C498.962 369.508 484.937 370.385 471.677 374.252C463.393 376.527 459.271 379.33 454.903 386.598C449.919 394.892 445.764 413.528 434.665 415.631C417.529 418.878 407.863 401.591 404.289 387.421C407.454 393.194 411.364 400.428 416.63 404.359C441.744 423.107 441.657 390.298 452.231 377.626C461.624 366.369 477.117 363.802 490.451 361.898C476.422 352.248 471.975 337.394 458.729 325.722C440.024 309.575 415.504 318.436 392.953 309.351C378.118 303.375 369.962 288.617 375.07 272.53C377.3 265.506 385.346 261.342 392.042 258.797Z"/><path fill="#E7E8E2" d="M323.989 235.014C324.818 235.023 325.646 235.083 326.468 235.194C331.095 235.851 337.453 239.391 340.805 242.363C370.996 269.134 337.894 325.423 357.17 355.596C360.118 360.211 367.183 363.846 372.775 364.411C387.649 365.914 400.257 362.389 411.981 353.535C399.665 369.689 387.348 375.921 367.204 370.622C366.552 389.317 364.015 406.218 378.879 420.088C392.298 429.804 405.186 422.832 417.846 415.918C402.269 431.163 387.162 437.623 369.837 420.189C356.532 406.802 358.739 385.123 359.097 367.631C328.091 342.765 355.003 291.795 346.307 260.104C342.766 247.2 335 241.271 323.989 235.014Z"/><path fill="#E7E8E2" d="M235.309 364.173C236.954 364.85 244.532 370.915 246.938 372.554C268.439 387.198 279.369 392.369 290.778 416.287C286.88 412.689 281.018 407.882 275.437 408.694C241.578 413.619 235.015 461.64 257.303 482.492C260.393 485.089 265.61 488.498 269.048 490.893C238.031 479.12 227.772 452.567 243.647 422.477C249.647 411.104 259.802 404.725 272.038 401.491C259.977 386.236 244.252 383.68 235.309 364.173Z"/><path fill="#E7E8E2" d="M426.526 181.718C431.971 184.876 439.47 193.126 442.566 197.656C460.041 223.205 448.185 229.234 421.861 223.866C405.843 220.598 391.313 225.961 377.951 234.559C376.076 236.017 373.924 237.464 371.967 238.844C400.722 203.702 435.569 221.897 442.494 217.776C444.982 211.934 433.685 198.203 430.868 192.138C428.937 187.981 428.132 186.325 426.526 181.718Z"/><path fill="#E7E8E2" d="M314.67 472.982C311.274 445.289 320.951 425.706 347.053 414.284L347.493 415.718C325.079 425.998 311.055 456.793 319.062 480.25C319.931 482.795 322.299 486.243 323.785 488.534C305.365 473.049 278.079 470.286 271.803 444.655C284.091 459.477 297.758 465.508 314.67 472.982Z"/><path fill="#E7E8E2" d="M384.823 144.303C385.015 146.278 382.527 152.161 382.162 154.736C378.19 182.74 372.822 200.384 351.495 220.054C351.568 218.373 356.961 210.442 358.218 208.428C370.303 189.073 371.998 162.874 384.823 144.303Z"/><path fill="#B1B2B4" d="M347.053 414.284C349.504 413.333 352.228 412.003 354.767 411.982C353.206 413.622 349.731 414.777 347.493 415.718L347.053 414.284Z"/><path fill="#19182F" d="M671.524 72.1647C683.533 71.6412 698.498 74.3853 709.87 78.4267C728.442 84.9525 743.701 98.5254 752.35 116.212C745.849 116.349 739.422 117.629 733.364 119.994C721.438 124.7 715.224 131.891 710.265 143.345C725.737 124.836 743.111 118.609 767.445 122.636C761.327 117.701 758.502 110.632 753.719 104.237C750.328 99.703 747.433 96.5677 743.576 92.4584C778.91 95.3486 798.747 101.525 824.913 127.642C833.358 136.571 840.772 146.122 840.994 158.966C841.217 171.895 825.872 187.018 813.371 187.02C803.87 187.021 795.532 171.576 789.475 164.923C776.031 150.155 762.145 145.651 742.688 144.018C756.28 149.302 760.702 148.463 774.753 158.935C788.082 168.868 791.865 184.793 805.669 191.43C811.429 193.814 818.136 192.367 823.394 189.672C845.52 178.333 855.117 160.709 843.511 137.505C866.874 140.64 891.488 154.884 904.458 174.545C910.379 183.519 915.537 193.24 921.927 201.827C926.556 207.417 931.457 212.706 936.806 217.749C951.032 231.165 960.996 256.606 945.051 272.505C937.396 280.139 916.206 288.7 904.799 287.855C880.429 286.05 882.984 247.276 868.197 233.669C857.336 223.263 849.234 221.779 835.22 221.171C846.101 225.118 852.752 225.55 861.109 235.105C881.56 258.488 876.238 290.005 853.217 309.341C832.797 326.492 818.185 328.516 793.039 326.991C832.078 336.9 867.553 316.278 880.473 278.51C884.966 286.449 891.993 292.12 895.616 299.051C892.306 318.703 882.115 331.939 867.301 344.548L858.908 350.869C876.178 344.304 894.022 329.6 901.921 312.647C904.265 307.614 904.778 302.734 905.306 297.271C920.871 295.405 941.778 288.242 952.691 276.564C953.96 281.346 954.848 285.258 955.723 290.071C958.239 303.91 953.741 319.093 945.258 330.311C931.684 348.262 908.264 364.233 885.784 367.602C858.848 371.639 839.268 359.906 818.701 344.899C832.587 362.779 852.403 373.79 874.677 377.041C851 398.544 836.186 409.683 802.805 411.076C803.14 403.772 802.934 396.454 802.189 389.181C798.175 352.814 779.469 331.609 752.478 310.06C755.053 307.702 757.652 305.371 760.276 303.067C775.461 289.835 792.999 275.687 813.833 275.177C822.33 274.969 830.91 275.885 839.415 276.455C814.729 269.242 805.434 267.56 781.706 277.489C792.783 255.021 792.309 219.211 765.916 207.821C763.271 206.68 761.362 205.651 758.413 205.38C759.465 206.806 763.333 208.55 765.042 209.621C786.603 223.14 786.212 252.741 775.431 273.119C767.596 287.929 757.177 297.579 741.275 302.792C719.004 292.542 704.805 285.073 679.51 280.914C701.181 259.185 714.679 239.908 719.082 208.6C723.754 221.767 726.494 228.687 735.577 239.349C730.845 230.976 728.628 226.45 725.764 216.877C720.562 199.495 719.431 177.873 707.077 163.796C699.125 154.734 688.168 152.876 676.785 152.388C687.769 114.129 666.985 93.0119 632.915 79.0858C646.572 74.8944 657.386 72.8298 671.524 72.1647Z"/><path fill="#E7E8E2" d="M862.361 178.256C904.061 174.782 906.534 230.254 917.093 256.841C910.001 246.571 907.433 237.585 903.382 225.851C896.905 207.477 884.278 179.602 858.813 184.153C848.764 185.949 841.854 194.736 836.629 203.014C840.743 190.124 849.312 181.698 862.361 178.256Z"/><path fill="#19182F" d="M587.105 76.514C619.364 75.1489 681.294 97.7832 672.469 139.538C668.308 159.227 660.77 170.635 670.347 190.947C667.232 175.281 671.005 168.751 676.569 153.894C701.28 157.835 709.76 172.777 714.66 196.133C721.276 227.665 693.288 262.599 668.186 277.797C655.457 273.964 641.056 272.185 627.91 270.057C618.327 268.505 608.653 269.405 599.411 265.794C576.035 256.661 569.178 228.05 590.31 212.296C596.223 207.872 600.538 206.373 607.292 203.767C596.738 205.606 586.911 208.642 579.163 216.592C573.209 222.662 570.019 230.918 570.344 239.415C570.715 251.393 576.49 258.701 584.811 266.417C568.88 265.81 546.934 266.147 532.521 259.822C515.263 252.249 511.96 229.287 507.808 212.448C506.136 205.429 504.025 198.522 501.488 191.767C492.074 168.911 486.293 162.196 465.653 150.061C446.652 138.889 429.5 128.282 406.973 125.49C420.696 108.478 445.303 88.0544 468.847 98.9509C480.936 104.546 487.936 116.971 491.438 129.226C492.418 132.656 492.238 135.906 493.412 139.395C493.74 135.333 493.795 131.253 493.577 127.183C493.109 118.072 489.906 107.202 483.867 99.9717C483.148 99.1111 476.93 93.962 475.391 92.5834L475.529 91.6504C477.786 89.3846 485.418 86.2454 488.499 85.2537C525.486 73.3484 604.136 91.028 617.7 131.315C601.154 133.916 578.824 138.005 569.906 154.326C565.506 162.378 567.811 171.193 570.419 179.444C571.804 146.475 595.806 137.921 625.26 138.11C624.089 106.683 587.958 90.4502 562.514 81.3945C570.822 78.3173 578.398 77.1848 587.105 76.514Z"/><path fill="#E7E8E2" d="M540.591 106.881C540.994 107.903 535.503 117.428 534.67 119.569C519.04 159.745 541.465 177.936 574.387 191.745L574.173 192.119L570.999 191.833C558.666 189.66 546.229 185.777 536.817 177.146C528.164 169.189 523.011 158.13 522.482 146.385C521.808 130.229 530.17 118.157 540.591 106.881Z"/><path fill="#E7E8E2" d="M603.457 167.12C617.758 165.645 633.452 172.473 642.288 183.708C654.969 199.831 655.753 221.935 653.599 241.45L653.307 241.484C652.234 240.605 651.563 235.493 651.268 233.902C644.647 198.159 640.633 178.923 603.457 167.12Z"/><path fill="#19182F" d="M328.338 519.131C356.887 515.079 436.971 531.2 467.558 539.256C479.5 542.401 493.744 548.711 504.677 554.562C498.599 576.923 479.681 600.617 464.316 617.532C438.424 646.038 410.089 663.456 370.583 664.434C355.29 664.812 339.261 663.241 327.368 652.123C346.044 655.977 368.119 652.426 386.336 647.412C439.6 635.044 469.246 606.012 495.435 560.092C491.383 561.116 485.067 562.653 480.955 561.462C470.106 558.32 460.736 553.758 449.582 550.501C412.152 539.572 372.152 531.362 333.02 532.094C319.03 532.356 307.204 537.159 294.16 540.865C289.292 542.248 283.316 542.904 278.255 544.37C274.691 545.402 264.892 551.385 262.162 550.505L261.793 548.958C262.905 543.421 271.08 539.146 275.576 536.379C292.157 526.176 308.981 520.822 328.338 519.131Z"/><path fill="#19182F" d="M338.08 500.394C369.822 499.32 400.61 505.561 431.648 511.286C462.383 516.955 490.961 518.926 506.883 549.733C485.217 534.993 455.046 530.134 429.513 524.465C412.917 520.98 395.925 518.65 379.187 515.94C340.335 509.647 292.499 508.943 262.084 538.458C263.349 533.198 264.985 525.949 268.928 522.167C285.724 506.055 316.138 501.385 338.08 500.394Z"/><path fill="#19182F" d="M459.178 572.149L459.597 572.352C459.412 572.69 459.2 573.139 458.88 573.363C413.589 605.015 352.155 612.663 298.408 613.439L295.557 609.773L289.655 603.055C314.097 599.826 335.083 596 358.942 588.913C368.857 585.968 378.342 581.093 387.496 578.694C390.392 577.936 406.426 578.868 410.487 578.892C428.989 579 441.553 576.966 459.178 572.149Z"/><path fill="#19182F" d="M332.27 538.515C368.109 536.341 436.438 552.164 470.778 564.414C463.26 566.268 455.583 567.643 447.972 569.085C432.644 571.76 410.344 574.428 394.792 572.343C387.847 571.411 372.338 562.857 365.6 559.332C344.918 548.516 332.931 544.632 310.185 541.427C317.493 540.082 324.864 539.11 332.27 538.515Z"/><path fill="#19182F" d="M480.148 566.429C481.641 566.386 482.465 566.216 483.805 566.879L483.985 568.103C451.831 623.379 391.742 651.422 328.423 647.204C325.256 646.993 321.068 646.688 319.007 644.151C316.096 640.68 314.062 637.725 311.513 634.023C368.932 640.187 437.884 622.47 472.434 574.615C474.651 571.544 476.803 567.907 480.148 566.429Z"/><path fill="#19182F" d="M300.22 547.884C330.764 545.612 353.295 559.83 379.327 573.544C373.244 576.418 365.03 579.871 358.721 581.956C354.803 581.143 350.543 579.96 346.635 578.963C320.195 572.51 293.517 566.92 267.292 559.608C265.21 559.027 263.215 558.229 261.255 557.321C274.615 552.628 286.113 549.129 300.22 547.884Z"/><path fill="#19182F" d="M469.441 570.054L469.66 571.248C467.647 575.367 461.753 580.542 458.36 583.796C431.719 609.134 394.142 623.008 358.088 627.283C350.918 628.133 310.225 630.168 306.922 626.656L301.989 618.825C308.197 619.042 314.409 619.12 320.621 619.06C367.26 618.583 435.557 604.714 469.441 570.054Z"/><path fill="#19182F" d="M263.508 564.614C292.5 573.023 319.428 580.037 349.351 585.331C345.077 586.352 340.682 587.278 336.384 588.234C320.007 592.04 302.321 595.389 285.747 598.955C272.189 587.578 267.408 581.667 263.508 564.614Z"/><path fill="#19182F" d="M468.429 624.991C469.071 627.531 468.391 631.238 468.078 633.922C466.052 651.288 461.002 666.445 451.799 681.399C435.712 688.013 416.704 688.39 399.606 687.512L399.125 687.274L399.673 686.6C425.679 680.834 443.114 665.908 455.18 642.725C458.545 636.259 463.595 630.421 468.429 624.991Z"/><path fill="#19182F" d="M513.381 552.445C515.374 556.174 518.465 568.39 520.397 573.588C514.266 606.019 514.25 622.268 493.964 651.385C492.854 652.871 491.423 654.487 490.215 655.922C499.426 627.88 501.902 605.923 504.626 576.768C505.028 572.465 511.604 558.543 513.381 552.445Z"/><path fill="#19182F" d="M496.604 588.754C496.906 590.866 495.746 597.683 495.411 600.176C492.439 622.274 487.295 642.961 480.796 664.235C475.418 669.001 469.634 672.657 463.603 676.486C463.397 675.248 469.945 660.569 470.713 657.721C474.348 644.227 474.948 629.8 475.577 616.023C482.919 606.748 489.719 598.416 496.604 588.754Z"/><path fill="#19182F" d="M446.21 644.609L446.495 645.514C434.315 663.746 410.12 676.303 389.542 682.858L384.729 678.36C382.111 675.851 380.399 673.867 378.043 671.101C406.796 668.746 423.117 660.625 446.21 644.609Z"/><path fill="#E7E8E2" d="M976.019 364.087C992.513 361.709 1017.79 372.137 1014.5 393.051C1012.45 406.122 993.522 399.624 984.643 398.051C956.567 393.078 936.803 400.065 912.871 413.667C905.634 418.024 893.285 434.154 887.159 430.334C885.27 425.344 893.918 415.533 897.06 411.679C914.294 390.546 948.887 366.694 976.019 364.087Z"/><path fill="#19182F" d="M977.526 372.857C982.894 372.427 989.694 373.545 994.516 376.1C999.142 378.551 1007.19 385.56 1003.67 391.111C998.276 391.152 990.799 389.881 985.27 389.182C972.543 387.574 963.114 387.642 950.429 389.304C939.058 391.486 933.854 393.168 923.262 397.538C937.995 386.992 959.408 374.283 977.526 372.857Z"/><path fill="#E7E8E2" d="M578.636 591.481C538.682 566.599 531.854 499.223 577.72 475.43C569.902 485.22 565.312 490.957 559.909 502.364C562.029 503.044 564.254 503.828 566.42 504.288C569.462 502.914 571.372 502.178 574.616 501.127C583.036 498.399 592.379 499.386 600.11 503.198C604.591 505.408 613.095 516.517 613.786 521.085C615.741 533.993 591.014 527.398 584.31 540.403C579.841 547.756 580.454 554.914 582.388 563.253C585.348 575.707 591.708 589.873 605.005 593.888C613.141 596.345 626.251 594.957 630.666 586.729C635.472 577.772 625.392 566.791 622.887 558.541C621.127 552.745 622.325 546.118 625.133 540.815C626.547 538.254 629.371 534.606 632.255 533.735C633.89 534.938 627.308 546.172 627.132 550.576C626.694 561.481 633.193 566.514 636.434 576.053C640.743 588.739 631.257 597.699 620.006 601.21C612.444 603.535 604.267 602.735 597.298 598.989C580.101 589.788 568.044 557.251 577.902 539.431C584.374 527.731 596.009 526.068 607.835 522.79C605.225 517.621 602.432 513.582 597.493 510.411C591.764 506.809 584.836 505.641 578.243 507.164C568.311 509.383 560.134 516.313 554.703 524.72C554.768 551.946 560.197 571.007 578.636 591.481Z"/><path fill="#070520" d="M559.909 502.364C562.029 503.044 564.254 503.828 566.42 504.288L557.268 510.212C558 507.614 559.011 504.923 559.909 502.364Z"/><path fill="#E7E8E2" d="M983.02 410.747C985.502 412.008 984.812 411.257 986.182 413.491C986.56 417.573 985.728 421.676 983.79 425.289C978.505 435.02 966.66 438.933 956.766 441.837C962.899 455.46 963.977 464.448 956.431 477.705C967.856 482.33 968.941 485.581 971.514 497.228C952.233 479.574 936.909 485.172 914.34 470.999C925.702 473.007 937.294 473.516 949.571 475.728C951.037 473.138 952.217 470.348 953.445 467.63C956.401 457.251 954.664 452.509 951.239 442.708C937.415 448.569 928.733 455.698 917.183 464.75C915.322 466.208 912.734 467.589 910.431 466.737C907.723 458.18 932.337 437.292 939.272 433.664C944.834 430.756 964.395 413.255 967.833 412.663L968.606 413.81C969.358 421.837 966.569 425.17 962.578 431.638C971.64 426.767 981.086 421.776 983.02 410.747Z"/><path fill="#060606" d="M955.909 429.577L955.739 430.711C951.548 435.929 945.976 439.941 939.933 442.754C939.429 439.927 953.285 431.125 955.909 429.577Z"/><path fill="#E7E8E2" d="M1078.14 587.467L1078.46 587.902C1070.8 599.671 1053.76 594.194 1044.03 602.171C1040.69 604.91 1041.63 614.235 1039.18 617.212C1037.41 617.455 1037.94 617.351 1035.99 616.12C1034.11 614.23 1032.26 611.731 1032.41 608.984C1033.46 589.212 1064.38 587.871 1078.14 587.467Z"/><path fill="#E7E8E2" d="M1012.11 579.397L1012.8 579.606C1012.85 580.927 1008.99 584.602 1007.95 586.218C1000.37 597.99 1004.95 611.284 1017.88 616.37C1020.57 617.428 1023.81 617.933 1026.26 619.367C1024.93 620.469 1023.39 620.307 1021.4 620.553C1018.44 620.584 1015.5 620.128 1012.68 619.204C992.208 612.323 992.32 588.417 1012.11 579.397Z"/><path fill="#E7E8E2" d="M618.845 479.883C632.467 480.407 643.404 495.997 643.633 508.629C643.743 514.714 643.11 517.351 641.229 523.118L640.506 524.472C639.64 523.031 639.722 515.248 639.347 512.856C637.236 499.393 627.498 489.414 618.845 479.883Z"/><path fill="#E7E8E2" d="M1030.35 670.701L1031.39 670.992C1030.94 671.936 996.93 699.778 992.904 702.87C992.062 703.323 992.533 703.224 991.474 703.057C993.423 698.433 998.605 693.271 1001.99 689.563C1010.45 680.312 1018.73 675.095 1030.35 670.701Z"/><path fill="#E7E8E2" d="M992.448 718.661C996.525 719.027 1020.95 729.816 1028.37 732.242L1028.46 733.269C1012.67 736.317 1002.53 730.87 992.448 718.661Z"/></svg>